<?xml version="1.0" standalone="no"?>
<!DOCTYPE svg PUBLIC "-//W3C//DTD SVG 20010904//EN"
 "http://www.w3.org/TR/2001/REC-SVG-20010904/DTD/svg10.dtd">
<svg version="1.0" xmlns="http://www.w3.org/2000/svg"
 width="180.000000pt" height="180.000000pt" viewBox="0 0 180.000000 180.000000"
 preserveAspectRatio="xMidYMid meet">
<metadata>
Created by potrace 1.14, written by Peter Selinger 2001-2017
</metadata>
<g transform="translate(0.000000,180.000000) scale(0.100000,-0.100000)"
fill="#000000" stroke="none">
<path d="M790 1794 c-14 -2 -50 -9 -80 -16 -30 -6 -57 -12 -60 -13 -3 0 -9 -3
-15 -6 -5 -4 -23 -9 -40 -13 -78 -19 -234 -116 -321 -200 -104 -102 -222 -296
-239 -396 0 -3 -7 -30 -15 -60 -24 -90 -19 -317 9 -415 85 -305 298 -531 591
-629 98 -32 115 -35 240 -42 73 -4 129 -1 185 10 102 19 112 21 160 39 275
103 475 318 561 604 24 78 27 105 27 238 0 173 -16 249 -82 391 -61 129 -132
219 -250 315 -104 85 -256 157 -390 184 -33 7 -248 14 -281 9z"/>
</g>
</svg>
