<svg width="14" height="14" fill="none" xmlns="http://www.w3.org/2000/svg"><path d="M4.667 7a2.333 2.333 0 114.667 0 2.333 2.333 0 01-4.667 0zM3.406 7a3.594 3.594 0 107.188 0 3.594 3.594 0 00-7.188 0zm6.491-3.737a.84.84 0 101.68 0 .84.84 0 00-1.68 0zm-5.725 9.435c-.683-.031-1.054-.145-1.3-.241a2.177 2.177 0 01-.805-.524 2.164 2.164 0 01-.524-.804c-.096-.247-.21-.618-.24-1.3-.035-.738-.041-.96-.041-2.829 0-1.87.007-2.09.04-2.829.031-.682.146-1.053.241-1.3.127-.327.279-.56.524-.805s.478-.397.805-.524c.246-.096.617-.21 1.3-.24.738-.034.96-.041 2.828-.041 1.87 0 2.09.007 2.83.04.682.032 1.052.146 1.3.241.326.127.559.28.804.524.245.245.397.478.524.805.096.247.21.618.24 1.3.035.739.042.96.042 2.829 0 1.869-.007 2.09-.041 2.829-.031.682-.145 1.053-.241 1.3-.127.327-.279.56-.524.804a2.173 2.173 0 01-.805.524c-.246.096-.617.21-1.3.24-.738.035-.96.042-2.829.042-1.869 0-2.09-.007-2.828-.041zM4.114.042C3.37.076 2.86.195 2.415.368a3.43 3.43 0 00-1.24.807c-.389.389-.629.78-.807 1.24-.173.445-.292.954-.326 1.699C.008 4.86 0 5.1 0 7c0 1.901.008 2.14.042 2.886.034.745.153 1.254.326 1.7.178.46.417.85.807 1.239.389.39.78.628 1.24.808.446.173.954.29 1.7.325.746.034.984.042 2.885.042 1.902 0 2.14-.008 2.886-.042s1.255-.152 1.7-.325c.46-.18.85-.419 1.24-.808.389-.389.628-.78.807-1.24.173-.445.292-.954.325-1.7C13.992 9.14 14 8.902 14 7c0-1.901-.008-2.14-.042-2.886-.034-.745-.152-1.254-.325-1.7-.18-.46-.418-.85-.807-1.239a3.434 3.434 0 00-1.24-.807c-.446-.173-.954-.292-1.7-.326C9.142.008 8.903 0 7.002 0 5.099 0 4.86.008 4.114.042z" fill="#A6A6A6"/></svg>