<svg width="20" height="12" fill="none" xmlns="http://www.w3.org/2000/svg"><path fill-rule="evenodd" clip-rule="evenodd" d="M19.54.805c.14-.473 0-.805-.657-.805h-2.188c-.563 0-.813.3-.954.632 0 0-1.11 2.747-2.689 4.515-.515.521-.734.68-1.016.68-.14 0-.344-.159-.344-.632V.805c0-.568-.156-.805-.625-.805H7.628c-.344 0-.563.268-.563.505 0 .537.782.663.876 2.148v3.252c0 .71-.125.837-.407.837-.734 0-2.548-2.747-3.61-5.905C3.704.253 3.5 0 2.939 0H.75C.125 0 0 .3 0 .632c0 .584.735 3.49 3.455 7.326C5.268 10.578 7.815 12 10.129 12c1.392 0 1.563-.316 1.563-.853v-1.99c0-.63.126-.757.579-.757.328 0 .875.158 2.173 1.421 1.485 1.5 1.735 2.179 2.563 2.179h2.189c.625 0 .938-.316.75-.932-.203-.615-.907-1.515-1.845-2.59-.515-.615-1.281-1.262-1.5-1.594-.328-.426-.235-.616 0-.979 0-.016 2.673-3.805 2.939-5.1z" fill="#A6A6A6"/></svg>